Coordinates
version=1
nRows=21
nColumns=12
inDegrees=yes

Units are S.I. units (second, meters, Newtons, ...)
Angles are in degrees

endheader
time	SC_y	SC_z	SC_x	AC_y	AC_z	AC_x	GH_y	GH_z	GH_yy	EL_x	PS_y
       0.0              -23.08          21.78          50.37          39.47         -2.143          -3.36          170.3          55.63         -166.8          135.5          64.39
   0.03366              -23.08          21.79          50.37          39.48         -2.143          -3.36          170.3          55.63         -166.8          135.5           64.4
   0.06732              -23.09          21.79          50.37          39.48         -2.142         -3.359          170.2          55.63         -166.8          135.5          64.41
     0.101              -23.09          21.79          50.38          39.48         -2.142         -3.359          170.2          55.63         -166.8          135.5          64.43
    0.1346              -23.09          21.79          50.38          39.49         -2.142         -3.358          170.1          55.63         -166.8          135.5          64.44
    0.1683               -23.1           21.8          50.38           39.5         -2.141         -3.357          170.1          55.64         -166.8          135.5          64.46
     0.202               -23.1           21.8          50.39           39.5         -2.141         -3.357          170.1          55.64         -166.8          135.5          64.47
    0.2356               -23.1           21.8          50.39          39.51          -2.14         -3.356          170.0          55.64         -166.8          135.5          64.49
    0.2693              -23.11          21.81          50.39          39.51          -2.14         -3.355          170.0          55.64         -166.8          135.5          64.51
     0.303              -23.11          21.81           50.4          39.52          -2.14         -3.354          169.9          55.64         -166.8          135.5          64.53
    0.3366              -23.11          21.82           50.4          39.53         -2.139         -3.353          169.8          55.65         -166.8          135.5          64.55
    0.3703              -23.12          21.82          50.41          39.54         -2.138         -3.352          169.8          55.65         -166.8          135.5          64.58
    0.4039              -23.12          21.83          50.41          39.55         -2.138         -3.351          169.7          55.65         -166.8          135.5           64.6
    0.4376              -23.13          21.83          50.42          39.55         -2.137         -3.349          169.6          55.65         -166.8          135.5          64.63
    0.4713              -23.13          21.84          50.42          39.57         -2.137         -3.348          169.6          55.66         -166.7          135.5          64.66
    0.5049              -23.14          21.84          50.43          39.58         -2.136         -3.347          169.5          55.66         -166.7          135.5          64.69
    0.5386              -23.15          21.85          50.44          39.59         -2.135         -3.345          169.4          55.67         -166.7          135.5          64.73
    0.5723              -23.15          21.86          50.45           39.6         -2.134         -3.343          169.3          55.67         -166.7          135.5          64.76
    0.6059              -23.16          21.87          50.45          39.62         -2.133         -3.341          169.1          55.67         -166.7          135.5          64.81
    0.6396              -23.17          21.87          50.46          39.63         -2.132         -3.339          169.0          55.68         -166.7          135.5          64.85
    0.6732              -23.18          21.88          50.47          39.65         -2.131         -3.337          168.9          55.68         -166.7          135.5           64.9
